<svg width="360" height="490" viewBox="0 0 360 490" fill="none" xmlns="http://www.w3.org/2000/svg">
<line x1="-133.996" y1="1.29608" x2="536.982" y2="1.29608" stroke="url(#paint0_linear_944_20135)" stroke-width="0.626593"/>
<line x1="-133.996" y1="8.53827" x2="536.982" y2="8.53827" stroke="url(#paint1_linear_944_20135)" stroke-width="0.626593"/>
<line x1="-133.996" y1="14.5773" x2="536.982" y2="14.5773" stroke="url(#paint2_linear_944_20135)" stroke-width="0.626593"/>
<line x1="-133.996" y1="4.90545" x2="536.982" y2="4.90545" stroke="url(#paint3_linear_944_20135)" stroke-width="0.626593"/>
<line x1="-133.996" y1="21.1945" x2="536.982" y2="21.1945" stroke="url(#paint4_linear_944_20135)" stroke-width="0.626593"/>
<line x1="-133.996" y1="30.8586" x2="536.982" y2="30.8586" stroke="url(#paint5_linear_944_20135)" stroke-width="0.626593"/>
<line x1="-133.996" y1="42.3195" x2="536.982" y2="42.3195" stroke="url(#paint6_linear_944_20135)" stroke-width="0.626593"/>
<line x1="-133.996" y1="55.5773" x2="536.982" y2="55.5773" stroke="url(#paint7_linear_944_20135)" stroke-width="0.626593"/>
<line x1="-133.996" y1="72.4836" x2="536.982" y2="72.4836" stroke="url(#paint8_linear_944_20135)" stroke-width="0.626593"/>
<line x1="-133.996" y1="92.9601" x2="536.982" y2="92.9601" stroke="url(#paint9_linear_944_20135)" stroke-width="0.626593"/>
<line x1="-133.996" y1="118.335" x2="536.982" y2="118.335" stroke="url(#paint10_linear_944_20135)" stroke-width="0.626593"/>
<line x1="-133.996" y1="144.866" x2="536.982" y2="144.866" stroke="url(#paint11_linear_944_20135)" stroke-width="0.626593"/>
<line x1="-133.996" y1="176.234" x2="536.982" y2="176.234" stroke="url(#paint12_linear_944_20135)" stroke-width="0.626593"/>
<line x1="-133.996" y1="212.405" x2="536.982" y2="212.405" stroke="url(#paint13_linear_944_20135)" stroke-width="0.626593"/>
<line x1="-133.996" y1="256.452" x2="536.982" y2="256.452" stroke="url(#paint14_linear_944_20135)" stroke-width="0.626593"/>
<line x1="-133.996" y1="314.96" x2="536.982" y2="314.96" stroke="url(#paint15_linear_944_20135)" stroke-width="0.626593"/>
<line x1="-133.996" y1="393.382" x2="536.982" y2="393.382" stroke="url(#paint16_linear_944_20135)" stroke-width="0.626593"/>
<line x1="-133.996" y1="488.679" x2="536.982" y2="488.679" stroke="url(#paint17_linear_944_20135)" stroke-width="0.626593"/>
<line y1="-0.313297" x2="494.19" y2="-0.313297" transform="matrix(-0.157777 0.987475 -0.903086 -0.42946 46.0762 1)" stroke="#2F2F49" stroke-width="0.626593"/>
<line y1="-0.313297" x2="491.117" y2="-0.313297" transform="matrix(-0.112488 0.993653 -0.947654 -0.319298 102.027 1)" stroke="#2F2F49" stroke-width="0.626593"/>
<line y1="-0.313297" x2="485.276" y2="-0.313297" transform="matrix(-0.0785364 0.996911 -0.973596 -0.22828 153.771 1.60156)" stroke="#2F2F49" stroke-width="0.626593"/>
<line y1="-0.313297" x2="494.19" y2="-0.313297" transform="matrix(0.157777 0.987475 0.903086 -0.42946 356.926 1)" stroke="#2F2F49" stroke-width="0.626593"/>
<line y1="-0.313297" x2="491.117" y2="-0.313297" transform="matrix(0.112488 0.993653 0.947654 -0.319298 300.975 1)" stroke="#2F2F49" stroke-width="0.626593"/>
<line y1="-0.313297" x2="485.276" y2="-0.313297" transform="matrix(0.0785364 0.996911 0.973596 -0.22828 249.23 1.60156)" stroke="#2F2F49" stroke-width="0.626593"/>
<line x1="199.882" y1="1.60156" x2="199.882" y2="487.189" stroke="#2F2F49" stroke-width="0.626593"/>
<defs>
<linearGradient id="paint0_linear_944_20135" x1="201.493" y1="1.60938" x2="201.493" y2="2.60938" gradientUnits="userSpaceOnUse">
<stop stop-color="#2F2F49"/>
<stop offset="1" stop-color="#2F2F49"/>
</linearGradient>
<linearGradient id="paint1_linear_944_20135" x1="201.493" y1="8.85156" x2="201.493" y2="9.85156" gradientUnits="userSpaceOnUse">
<stop stop-color="#2F2F49"/>
<stop offset="1" stop-color="#2F2F49"/>
</linearGradient>
<linearGradient id="paint2_linear_944_20135" x1="201.493" y1="14.8906" x2="201.493" y2="15.8906" gradientUnits="userSpaceOnUse">
<stop stop-color="#2F2F49"/>
<stop offset="1" stop-color="#2F2F49"/>
</linearGradient>
<linearGradient id="paint3_linear_944_20135" x1="201.493" y1="5.21875" x2="201.493" y2="6.21875" gradientUnits="userSpaceOnUse">
<stop stop-color="#2F2F49"/>
<stop offset="1" stop-color="#2F2F49"/>
</linearGradient>
<linearGradient id="paint4_linear_944_20135" x1="201.493" y1="21.5078" x2="201.493" y2="22.5078" gradientUnits="userSpaceOnUse">
<stop stop-color="#2F2F49"/>
<stop offset="1" stop-color="#2F2F49"/>
</linearGradient>
<linearGradient id="paint5_linear_944_20135" x1="201.493" y1="31.1719" x2="201.493" y2="32.1719" gradientUnits="userSpaceOnUse">
<stop stop-color="#2F2F49"/>
<stop offset="1" stop-color="#2F2F49"/>
</linearGradient>
<linearGradient id="paint6_linear_944_20135" x1="201.493" y1="42.6328" x2="201.493" y2="43.6328" gradientUnits="userSpaceOnUse">
<stop stop-color="#2F2F49"/>
<stop offset="1" stop-color="#2F2F49"/>
</linearGradient>
<linearGradient id="paint7_linear_944_20135" x1="201.493" y1="55.8906" x2="201.493" y2="56.8906" gradientUnits="userSpaceOnUse">
<stop stop-color="#2F2F49"/>
<stop offset="1" stop-color="#2F2F49"/>
</linearGradient>
<linearGradient id="paint8_linear_944_20135" x1="201.493" y1="72.7969" x2="201.493" y2="73.7969" gradientUnits="userSpaceOnUse">
<stop stop-color="#2F2F49"/>
<stop offset="1" stop-color="#2F2F49"/>
</linearGradient>
<linearGradient id="paint9_linear_944_20135" x1="201.493" y1="93.2734" x2="201.493" y2="94.2734" gradientUnits="userSpaceOnUse">
<stop stop-color="#2F2F49"/>
<stop offset="1" stop-color="#2F2F49"/>
</linearGradient>
<linearGradient id="paint10_linear_944_20135" x1="201.493" y1="118.648" x2="201.493" y2="119.648" gradientUnits="userSpaceOnUse">
<stop stop-color="#2F2F49"/>
<stop offset="1" stop-color="#2F2F49"/>
</linearGradient>
<linearGradient id="paint11_linear_944_20135" x1="201.493" y1="145.18" x2="201.493" y2="146.18" gradientUnits="userSpaceOnUse">
<stop stop-color="#2F2F49"/>
<stop offset="1" stop-color="#2F2F49"/>
</linearGradient>
<linearGradient id="paint12_linear_944_20135" x1="201.493" y1="176.547" x2="201.493" y2="177.547" gradientUnits="userSpaceOnUse">
<stop stop-color="#2F2F49"/>
<stop offset="1" stop-color="#2F2F49"/>
</linearGradient>
<linearGradient id="paint13_linear_944_20135" x1="201.493" y1="212.719" x2="201.493" y2="213.719" gradientUnits="userSpaceOnUse">
<stop stop-color="#2F2F49"/>
<stop offset="1" stop-color="#2F2F49"/>
</linearGradient>
<linearGradient id="paint14_linear_944_20135" x1="201.493" y1="256.766" x2="201.493" y2="257.766" gradientUnits="userSpaceOnUse">
<stop stop-color="#2F2F49"/>
<stop offset="1" stop-color="#2F2F49"/>
</linearGradient>
<linearGradient id="paint15_linear_944_20135" x1="201.493" y1="315.273" x2="201.493" y2="316.273" gradientUnits="userSpaceOnUse">
<stop stop-color="#2F2F49"/>
<stop offset="1" stop-color="#2F2F49"/>
</linearGradient>
<linearGradient id="paint16_linear_944_20135" x1="201.493" y1="393.695" x2="201.493" y2="394.695" gradientUnits="userSpaceOnUse">
<stop stop-color="#2F2F49"/>
<stop offset="1" stop-color="#2F2F49"/>
</linearGradient>
<linearGradient id="paint17_linear_944_20135" x1="201.493" y1="488.992" x2="201.493" y2="489.992" gradientUnits="userSpaceOnUse">
<stop stop-color="#2F2F49"/>
<stop offset="1" stop-color="#2F2F49"/>
</linearGradient>
</defs>
</svg>
