<svg width="17" height="17" viewBox="0 0 17 17" fill="none" xmlns="http://www.w3.org/2000/svg">
<path d="M8.21418 7.87103C7.76025 7.87103 7.32492 7.69071 7.00394 7.36974C6.68297 7.04876 6.50264 6.61342 6.50264 6.1595C6.50264 5.70557 6.68297 5.27023 7.00394 4.94925C7.32492 4.62828 7.76025 4.44796 8.21418 4.44796C8.66811 4.44796 9.10345 4.62828 9.42442 4.94925C9.7454 5.27023 9.92572 5.70557 9.92572 6.1595C9.92572 6.38426 9.88145 6.60682 9.79544 6.81447C9.70943 7.02213 9.58335 7.2108 9.42442 7.36974C9.26549 7.52867 9.07681 7.65474 8.86916 7.74075C8.66151 7.82676 8.43895 7.87103 8.21418 7.87103ZM8.21418 1.36719C6.94318 1.36719 5.72424 1.87209 4.82551 2.77082C3.92678 3.66955 3.42188 4.8885 3.42188 6.1595C3.42188 9.75373 8.21418 15.0595 8.21418 15.0595C8.21418 15.0595 13.0065 9.75373 13.0065 6.1595C13.0065 4.8885 12.5016 3.66955 11.6029 2.77082C10.7041 1.87209 9.48518 1.36719 8.21418 1.36719Z" fill="white"/>
</svg>
