<svg width="40" height="40" viewBox="0 0 40 40" fill="none" xmlns="http://www.w3.org/2000/svg">
<path d="M19.5833 20.0026C19.5833 24.3676 16.0317 27.9193 11.6667 27.9193C7.30167 27.9193 3.75 24.3676 3.75 20.0026C3.75 15.6376 7.30167 12.0859 11.6667 12.0859C16.0317 12.0859 19.5833 15.6376 19.5833 20.0026ZM20 12.0859C19.5333 12.0859 19.05 12.1359 18.5833 12.2193C20.7333 14.1193 22.0833 16.9026 22.0833 20.0026C22.0833 23.1026 20.7333 25.8859 18.5833 27.7859C19.05 27.8693 19.5333 27.9193 20 27.9193C24.3667 27.9193 27.9167 24.3693 27.9167 20.0026C27.9167 15.6359 24.3667 12.0859 20 12.0859ZM29.1667 12.5359C28.6 12.5359 28.0333 12.6026 27.4833 12.7693C29.3 14.6359 30.4167 17.2026 30.4167 20.0026C30.4167 22.8026 29.3 25.3693 27.4833 27.2359C28.0333 27.4026 28.6 27.4693 29.1667 27.4693C33.0667 27.4693 36.25 24.1193 36.25 20.0026C36.25 15.8859 33.0667 12.5359 29.1667 12.5359Z" fill="url(#paint0_linear_944_20063)"/>
<defs>
<linearGradient id="paint0_linear_944_20063" x1="3.75" y1="12.0859" x2="44.0442" y2="16.885" gradientUnits="userSpaceOnUse">
<stop stop-color="#FF439D"/>
<stop offset="1" stop-color="#2518D1"/>
</linearGradient>
</defs>
</svg>
